<svg xmlns="http://www.w3.org/2000/svg" viewBox="0 0 234.32 148.77"><defs><style>.cls-1{fill:#231f20;}</style></defs><g id="Layer_2" data-name="Layer 2"><g id="Layer_1-2" data-name="Layer 1"><path class="cls-1" d="M37.44,0A30.52,30.52,0,0,0,14,10.14V1.69H0V65.52H14v-42a21.17,21.17,0,0,1,7.8-7.47,20.25,20.25,0,0,1,10.27-2.93q15,0,15,16.51V65.52h14v-39Q61.1,14,54.93,7T37.44,0Z"/><path class="cls-1" d="M91.12,57.85a36.19,36.19,0,0,0,25.09,9.36q14.69,0,23.53-6.24V49.14a39.55,39.55,0,0,1-20.54,5.72q-9.89,0-16.31-4.55A18.41,18.41,0,0,1,95.15,37.7H144V34.06q0-19.25-13.52-28.86Q123.63,0,113.74,0,99.31,0,90.08,9.62T81,33.54Q81,48.5,91.12,57.85Zm9.69-41.66a17.71,17.71,0,0,1,12.28-4.36q7.8,0,12.22,4.68A15.92,15.92,0,0,1,129.86,27H95.28A16.23,16.23,0,0,1,100.81,16.19Z"/><polygon class="cls-1" points="140.41 78.08 117.3 101.19 94.2 78.08 81.96 90.32 105.07 113.43 81.96 136.53 94.2 148.77 117.3 125.66 140.41 148.77 152.65 136.53 129.54 113.43 152.65 90.32 140.41 78.08"/><path class="cls-1" d="M199.26,78.37a35.06,35.06,0,1,0,35.06,35.06A35.1,35.1,0,0,0,199.26,78.37Zm0,58.13a23.08,23.08,0,1,1,23.08-23.07A23.1,23.1,0,0,1,199.26,136.5Z"/></g></g></svg>