<svg xmlns="http://www.w3.org/2000/svg" viewBox="0 0 227.84 150.93"><defs><style>.cls-1{fill:#231f20;}</style></defs><g id="Layer_2" data-name="Layer 2"><g id="Layer_1-2" data-name="Layer 1"><path class="cls-1" d="M37.44,83.72A30.52,30.52,0,0,0,14,93.86V85.41H0v63.83H14v-42a21.25,21.25,0,0,1,7.8-7.47,20.35,20.35,0,0,1,10.27-2.93q15,0,15,16.51v35.88h14v-39q0-12.48-6.17-19.5T37.44,83.72Z"/><path class="cls-1" d="M124.8,88.92q-6.89-5.19-16.77-5.2-14.43,0-23.66,9.62t-9.1,23.92q0,15,10.14,24.31a36.19,36.19,0,0,0,25.09,9.36q14.69,0,23.53-6.23V132.86a39.45,39.45,0,0,1-20.54,5.72q-9.88,0-16.31-4.55a18.38,18.38,0,0,1-7.74-12.61h48.88v-3.64Q138.32,98.55,124.8,88.92ZM89.57,110.76A16.23,16.23,0,0,1,95.1,99.91a17.76,17.76,0,0,1,12.28-4.36q7.8,0,12.22,4.69a15.92,15.92,0,0,1,4.55,10.52Z"/><polygon class="cls-1" points="227.84 92.48 215.6 80.24 192.5 103.35 169.39 80.24 157.15 92.48 180.26 115.58 157.15 138.69 169.39 150.93 192.5 127.82 215.6 150.93 227.84 138.69 204.73 115.58 227.84 92.48"/><path class="cls-1" d="M192.49,70.11a35.06,35.06,0,1,0-35.05-35A35.09,35.09,0,0,0,192.49,70.11Zm0-58.13a23.08,23.08,0,1,1-23.07,23.08A23.1,23.1,0,0,1,192.49,12Z"/></g></g></svg>