<?xml version="1.0" encoding="UTF-8" standalone="no"?><svg xmlns="http://www.w3.org/2000/svg" xmlns:xlink="http://www.w3.org/1999/xlink" contentStyleType="text/css" height="1007px" preserveAspectRatio="none" style="width:1343px;height:1007px;background:#FFFFFF;" version="1.1" viewBox="0 0 1343 1007" width="1343px" zoomAndPan="magnify"><defs/><g><!--MD5=[11f5a59c7fe1ec63ab6229154f81e090]
cluster Nexo--><g id="cluster_Nexo"><rect height="488" rx="2.5" ry="2.5" style="stroke:#181818;stroke-width:1.0;fill:none;" width="1111.003" x="226.9784" y="401"/><text fill="#000000" font-family="sans-serif" font-size="14" font-weight="bold" lengthAdjust="spacing" textLength="39" x="762.9799" y="415.9951">Nexo</text></g><g id="elem_authentication"><ellipse cx="923.7538" cy="654.0551" fill="#F1F1F1" rx="75.7754" ry="17.5551" style="stroke:#181818;stroke-width:0.5;"/><text fill="#000000" font-family="sans-serif" font-size="14" lengthAdjust="spacing" textLength="108" x="866.7538" y="657.8026">Authentication</text></g><g id="elem_registration"><ellipse cx="1253.5825" cy="655.1202" fill="#F1F1F1" rx="68.6011" ry="16.1202" style="stroke:#181818;stroke-width:0.5;"/><text fill="#000000" font-family="sans-serif" font-size="14" lengthAdjust="spacing" textLength="89" x="1206.0825" y="658.8678">Registration</text></g><g id="elem_view_contributor_profile"><ellipse cx="346.1392" cy="850.0322" fill="#F1F1F1" rx="103.1608" ry="23.0322" style="stroke:#181818;stroke-width:0.5;"/><text fill="#000000" font-family="sans-serif" font-size="14" lengthAdjust="spacing" textLength="171" x="260.6392" y="852.8788">view contributor profile</text></g><g id="elem_view_article"><ellipse cx="346.0915" cy="706.1226" fill="#F1F1F1" rx="66.113" ry="15.6226" style="stroke:#181818;stroke-width:0.5;"/><text fill="#000000" font-family="sans-serif" font-size="14" lengthAdjust="spacing" textLength="82" x="302.0915" y="709.8702">view article</text></g><g id="elem_create_article"><ellipse cx="648.5314" cy="856.2106" fill="#F1F1F1" rx="71.5529" ry="16.7106" style="stroke:#181818;stroke-width:0.5;"/><text fill="#000000" font-family="sans-serif" font-size="14" lengthAdjust="spacing" textLength="97" x="597.0314" y="859.9581">create article</text></g><g id="elem_edit_article"><ellipse cx="346.055" cy="571.9153" fill="#F1F1F1" rx="65.0766" ry="15.4153" style="stroke:#181818;stroke-width:0.5;"/><text fill="#000000" font-family="sans-serif" font-size="14" lengthAdjust="spacing" textLength="79" x="303.555" y="575.6629">edit article</text></g><g id="elem_delete_article"><ellipse cx="346.0314" cy="639.2106" fill="#F1F1F1" rx="71.5529" ry="16.7106" style="stroke:#181818;stroke-width:0.5;"/><text fill="#000000" font-family="sans-serif" font-size="14" lengthAdjust="spacing" textLength="97" x="294.5314" y="642.9581">delete article</text></g><g id="elem_create_user"><ellipse cx="648.2439" cy="522.0531" fill="#F1F1F1" rx="65.7655" ry="15.5531" style="stroke:#181818;stroke-width:0.5;"/><text fill="#000000" font-family="sans-serif" font-size="14" lengthAdjust="spacing" textLength="81" x="604.7439" y="525.8007">create user</text></g><g id="elem_edit_user"><ellipse cx="648.5583" cy="587.7511" fill="#F1F1F1" rx="57.0799" ry="14.7511" style="stroke:#181818;stroke-width:0.5;"/><text fill="#000000" font-family="sans-serif" font-size="14" lengthAdjust="spacing" textLength="63" x="614.0583" y="591.4987">edit user</text></g><g id="elem_delete_user"><ellipse cx="648.2439" cy="654.0531" fill="#F1F1F1" rx="65.7655" ry="15.5531" style="stroke:#181818;stroke-width:0.5;"/><text fill="#000000" font-family="sans-serif" font-size="14" lengthAdjust="spacing" textLength="81" x="604.7439" y="657.8007">delete user</text></g><g id="elem_view_user"><ellipse cx="648.2982" cy="719.7671" fill="#F1F1F1" rx="59.3197" ry="14.7671" style="stroke:#181818;stroke-width:0.5;"/><text fill="#000000" font-family="sans-serif" font-size="14" lengthAdjust="spacing" textLength="66" x="612.2982" y="723.5147">view user</text></g><g id="elem_view_all_articles"><ellipse cx="346.1461" cy="774.1335" fill="#F1F1F1" rx="76.1676" ry="17.6335" style="stroke:#181818;stroke-width:0.5;"/><text fill="#000000" font-family="sans-serif" font-size="14" lengthAdjust="spacing" textLength="109" x="288.6461" y="777.8811">view all articles</text></g><g id="elem_delete_report"><ellipse cx="648.4078" cy="786.7859" fill="#F1F1F1" rx="71.9293" ry="16.7859" style="stroke:#181818;stroke-width:0.5;"/><text fill="#000000" font-family="sans-serif" font-size="14" lengthAdjust="spacing" textLength="98" x="596.4078" y="790.5334">delete report</text></g><g id="elem_view_all_reports"><ellipse cx="648.5397" cy="454.2122" fill="#F1F1F1" rx="76.5612" ry="17.7122" style="stroke:#181818;stroke-width:0.5;"/><text fill="#000000" font-family="sans-serif" font-size="14" lengthAdjust="spacing" textLength="110" x="590.5397" y="457.9598">view all reports</text></g><!--MD5=[e1c93bc9be729354515e9ba3224548de]
entity reader--><g id="elem_reader"><ellipse cx="75.4786" cy="828.5" fill="#F1F1F1" rx="8" ry="8" style="stroke:#181818;stroke-width:0.5;"/><path d="M75.4786,836.5 L75.4786,863.5 M62.4786,844.5 L88.4786,844.5 M75.4786,863.5 L62.4786,878.5 M75.4786,863.5 L88.4786,878.5 " fill="none" style="stroke:#181818;stroke-width:0.5;"/><text fill="#000000" font-family="sans-serif" font-size="14" lengthAdjust="spacing" textLength="51" x="49.9786" y="892.9951">Reader</text></g><!--MD5=[9a62c7632a3e12d2b4ef62c23371a6aa]
entity contributor--><g id="elem_contributor"><ellipse cx="75.4786" cy="544.5" fill="#F1F1F1" rx="8" ry="8" style="stroke:#181818;stroke-width:0.5;"/><path d="M75.4786,552.5 L75.4786,579.5 M62.4786,560.5 L88.4786,560.5 M75.4786,579.5 L62.4786,594.5 M75.4786,579.5 L88.4786,594.5 " fill="none" style="stroke:#181818;stroke-width:0.5;"/><text fill="#000000" font-family="sans-serif" font-size="14" lengthAdjust="spacing" textLength="85" x="32.9786" y="608.9951">Contributor</text></g><!--MD5=[79a439086b036a57b90a01d7b2f8bbd1]
entity admin--><g id="elem_admin"><ellipse cx="75.4786" cy="260.5" fill="#F1F1F1" rx="8" ry="8" style="stroke:#181818;stroke-width:0.5;"/><path d="M75.4786,268.5 L75.4786,295.5 M62.4786,276.5 L88.4786,276.5 M75.4786,295.5 L62.4786,310.5 M75.4786,295.5 L88.4786,310.5 " fill="none" style="stroke:#181818;stroke-width:0.5;"/><text fill="#000000" font-family="sans-serif" font-size="14" lengthAdjust="spacing" textLength="46" x="52.4786" y="324.9951">Admin</text></g><!--MD5=[733214b4abb3e6b46ca096503df59544]
link authentication to registration--><g id="link_authentication_registration"><path d="M987.7954,663.507 C1010.7634,666.546 1036.9914,669.507 1060.9814,671 C1088.9214,672.74 1096.0314,672.733 1123.9814,671 C1145.7914,669.647 1169.5614,667.015 1190.6714,664.27 " fill="none" id="authentication-to-registration" style="stroke:#181818;stroke-width:1.0;stroke-dasharray:7.0,7.0;"/><polygon fill="#181818" points="1195.6914,663.608,1186.2438,660.8254,1190.7348,664.2651,1187.2952,668.756,1195.6914,663.608" style="stroke:#181818;stroke-width:1.0;"/><text fill="#000000" font-family="sans-serif" font-size="13" lengthAdjust="spacing" textLength="61" x="1061.9814" y="667.0669">«include»</text></g><!--MD5=[ad16fe5804610bda2f31cf431c4c29c6]
link registration to authentication--><g id="link_registration_authentication"><path d="M1186.1314,651.925 C1166.1614,651.133 1144.1814,650.393 1123.9814,650 C1084.6314,649.235 1040.9014,649.942 1004.4804,650.963 " fill="none" id="registration-to-authentication" style="stroke:#181818;stroke-width:1.0;stroke-dasharray:7.0,7.0;"/><polygon fill="#181818" points="999.1614,651.116,1008.272,654.8573,1004.1594,650.9732,1008.0435,646.8605,999.1614,651.116" style="stroke:#181818;stroke-width:1.0;"/><text fill="#000000" font-family="sans-serif" font-size="13" lengthAdjust="spacing" textLength="61" x="1061.9814" y="645.0669">«extend»</text></g><!--MD5=[6d2ba815bf33969db75b06c6654af276]
link reader to view_contributor_profile--><g id="link_reader_view_contributor_profile"><path d="M101.0384,869.343 C114.5692,874.969 131.8484,881.158 147.9784,884 C196.1734,892.491 251.0404,881.314 290.6094,869.559 " fill="none" id="reader-view_contributor_profile" style="stroke:#181818;stroke-width:1.0;"/></g><!--MD5=[68161b2a5b89f939a8a7c81ebe47c4fc]
link reader to view_all_articles--><g id="link_reader_view_all_articles"><path d="M101.3596,849.972 C128.4244,841.17 172.9194,826.498 210.9784,813 C214.5574,811.731 215.3724,811.189 218.9784,810 C243.9334,801.771 272.0184,793.639 295.3294,787.192 " fill="none" id="reader-view_all_articles" style="stroke:#181818;stroke-width:1.0;"/></g><!--MD5=[0d668084ebcc7b3a8df366d40d9195d9]
link reader to authentication--><g id="link_reader_authentication"><path d="M86.1433,896.053 C99.3838,938.1155 127.5954,1000 178.9784,1000 C178.9784,1000 178.9784,1000 649.4784,1000 C818.6984,1000 899.5764,742.142 918.5284,671.634 " fill="none" id="reader-authentication" style="stroke:#181818;stroke-width:1.0;"/></g><!--MD5=[22733b7019a3047aa086b59d81280bdb]
link admin to authentication--><g id="link_admin_authentication"><path d="M82.0276,251.993 C94.3977,174.606 127.2804,6 178.9784,6 C178.9784,6 178.9784,6 649.4784,6 C790.3634,6 899.4784,532.476 919.6334,636.331 " fill="none" id="admin-authentication" style="stroke:#181818;stroke-width:1.0;"/></g><!--MD5=[21b90ebb505956500097ed7f1e1c1e89]
link contributor to create_article--><g id="link_contributor_create_article"><path d="M118.2754,556.232 C127.8914,552.704 138.1754,549.364 147.9784,547 C278.0744,515.627 321.1854,499.277 448.9784,539 C496.8924,553.893 515.6634,560.28 541.9784,603 C593.5044,686.646 513.1584,743.312 571.9784,822 C579.2084,831.672 589.8224,838.657 600.8214,843.678 " fill="none" id="contributor-create_article" style="stroke:#181818;stroke-width:1.0;"/></g><!--MD5=[ba86ed00aeea6ef0112bdfeb08c067ab]
link contributor to view_article--><g id="link_contributor_view_article"><path d="M118.0484,608.753 C145.2694,629.975 182.4524,656.174 218.9784,673 C242.2894,683.738 269.6984,691.441 292.9884,696.69 " fill="none" id="contributor-view_article" style="stroke:#181818;stroke-width:1.0;"/></g><!--MD5=[ba2d0beaa4beb89bfc0d884fc761f49f]
link reader to view_article--><g id="link_reader_view_article"><path d="M100.9894,831.577 C127.5544,804.478 172.4234,762.998 218.9784,739 C241.2894,727.499 267.9404,719.768 290.9744,714.699 " fill="none" id="reader-view_article" style="stroke:#181818;stroke-width:1.0;"/></g><!--MD5=[3809082b311b9a05fd0f3988f5bcd06c]
link contributor to edit_article--><g id="link_contributor_edit_article"><path d="M118.1374,573.69 C161.6634,573.365 230.5084,572.853 280.9484,572.477 " fill="none" id="contributor-edit_article" style="stroke:#181818;stroke-width:1.0;"/></g><!--MD5=[1ff892a6b776a4137a213c290eb3ad59]
link contributor to delete_article--><g id="link_contributor_delete_article"><path d="M118.1374,584.085 C166.1564,595.71 244.9904,614.794 295.9304,627.126 " fill="none" id="contributor-delete_article" style="stroke:#181818;stroke-width:1.0;"/></g><!--MD5=[d73d73a179aba733015d5f6fed3ae947]
link admin to contributor--><g id="link_admin_contributor"><path d="M75.4786,328.395 C75.4786,390.756 75.4786,453.118 75.4786,515.479 " fill="none" id="admin-to-contributor" style="stroke:#181818;stroke-width:1.0;"/><polygon fill="none" points="82.4787,515.727,75.4786,535.727,68.4787,515.727,82.4787,515.727" style="stroke:#181818;stroke-width:1.0;"/></g><!--MD5=[109c7715445fc9e8d583890327c8d9ae]
link admin to reader--><g id="link_admin_reader"><path d="M61.3733,328.002 C40.7372,388.08 6,508.829 17.9787,612.5 C25.5354,677.901 44.0589,751.19 58.0553,800.526 " fill="none" id="admin-to-reader" style="stroke:#181818;stroke-width:1.0;"/><polygon fill="none" points="64.7945,798.633,63.6367,819.791,51.3475,802.529,64.7945,798.633" style="stroke:#181818;stroke-width:1.0;"/></g><!--MD5=[501176bd9eeddaf4a3120b2162e427ab]
link admin to view_user--><g id="link_admin_view_user"><path d="M98.508,292.198 C182.6384,301.063 481.9484,337.066 541.9784,406 C624.4624,500.718 497.7244,585.702 571.9784,687 C579.8434,697.73 591.9584,705.019 604.1974,709.951 " fill="none" id="admin-view_user" style="stroke:#181818;stroke-width:1.0;"/></g><!--MD5=[5493a9c038f62cc4c2bdedfb3dd98b92]
link admin to create_user--><g id="link_admin_create_user"><path d="M93.7489,251.549 C105.6448,230.086 123.7034,205.264 147.9784,193 C304.2764,114.039 412.0634,75.586 541.9784,193 C591.0294,237.331 533.0344,435.572 571.9784,489 C579.3094,499.057 590.3774,506.09 601.7954,510.992 " fill="none" id="admin-create_user" style="stroke:#181818;stroke-width:1.0;"/></g><!--MD5=[b1d175214e30e6e696cf3784ef3a81b0]
link admin to edit_user--><g id="link_admin_edit_user"><path d="M98.5316,279.243 C172.2564,244.999 412.7684,147.426 541.9784,264 C590.2464,307.548 533.6404,502.499 571.9784,555 C579.9934,565.975 592.4564,573.349 604.9634,578.283 " fill="none" id="admin-edit_user" style="stroke:#181818;stroke-width:1.0;"/></g><!--MD5=[7f81e0e74d719ba1cbfa8ba56af983df]
link admin to delete_user--><g id="link_admin_delete_user"><path d="M98.6764,283.702 C173.3774,264.004 417.8974,211.925 541.9784,335 C587.3494,380.003 534.2464,569.425 571.9784,621 C579.3274,631.044 590.4004,638.073 601.8184,642.975 " fill="none" id="admin-delete_user" style="stroke:#181818;stroke-width:1.0;"/></g><!--MD5=[0a4ea3bce848f46dcbe4019fd5c0893b]
link admin to delete_report--><g id="link_admin_delete_report"><path d="M98.7698,301.696 C189.5684,349.426 527.4244,527.932 541.9784,549 C594.0664,624.4 516.7494,679.871 571.9784,753 C579.0824,762.407 589.3824,769.276 600.1004,774.267 " fill="none" id="admin-delete_report" style="stroke:#181818;stroke-width:1.0;"/></g><!--MD5=[92d62c9bd293572aa5a3bb5c05b8ce04]
link admin to view_all_reports--><g id="link_admin_view_all_reports"><path d="M80.6819,251.978 C87.3633,211.927 104.4831,150.759 147.9784,122 C294.0474,25.419 400.6454,18.614 541.9784,122 C595.0634,160.831 634.0994,373.329 644.6394,436.366 " fill="none" id="admin-view_all_reports" style="stroke:#181818;stroke-width:1.0;"/></g><!--MD5=[5d7aff95d887e7490c3f483149a94f6c]
link view_all_reports to authentication--><g id="link_view_all_reports_authentication"><path d="M684.2334,469.663 C697.1024,475.58 711.7704,482.464 724.9784,489 C766.8524,509.72 781.0714,509.355 817.9784,538 C854.0864,566.025 888.0904,607.324 907.1574,632.34 " fill="none" id="view_all_reports-to-authentication" style="stroke:#181818;stroke-width:1.0;stroke-dasharray:7.0,7.0;"/><polygon fill="#181818" points="910.3134,636.512,908.0723,626.9215,907.2963,632.5249,901.6929,631.7489,910.3134,636.512" style="stroke:#181818;stroke-width:1.0;"/><text fill="#000000" font-family="sans-serif" font-size="13" lengthAdjust="spacing" textLength="61" x="755.9784" y="499.0669">«include»</text></g><!--MD5=[d4c26df52699d118cc4d067dcc36fbcd]
link delete_report to authentication--><g id="link_delete_report_authentication"><path d="M688.3434,772.722 C722.9684,759.565 774.7034,738.823 817.9784,717 C844.2054,703.774 872.7094,686.472 893.3914,673.347 " fill="none" id="delete_report-to-authentication" style="stroke:#181818;stroke-width:1.0;stroke-dasharray:7.0,7.0;"/><polygon fill="#181818" points="897.6834,670.613,887.9438,672.076,893.4667,673.2999,892.2428,678.8227,897.6834,670.613" style="stroke:#181818;stroke-width:1.0;"/><text fill="#000000" font-family="sans-serif" font-size="13" lengthAdjust="spacing" textLength="61" x="755.9784" y="713.0669">«include»</text></g><!--MD5=[9f6f605c5ab7b438dee81e897bf26dd9]
link create_user to authentication--><g id="link_create_user_authentication"><path d="M686.0624,534.79 C720.7124,547.361 773.8624,567.84 817.9784,590 C844.5164,603.33 873.2164,621.07 893.8934,634.492 " fill="none" id="create_user-to-authentication" style="stroke:#181818;stroke-width:1.0;stroke-dasharray:7.0,7.0;"/><polygon fill="#181818" points="898.1804,637.287,892.8267,629.0204,893.9923,634.5558,888.4568,635.7214,898.1804,637.287" style="stroke:#181818;stroke-width:1.0;"/><text fill="#000000" font-family="sans-serif" font-size="13" lengthAdjust="spacing" textLength="61" x="755.9784" y="559.0669">«include»</text></g><!--MD5=[246bdb70b0b16707f1982fccb73ddcef]
link edit_user to authentication--><g id="link_edit_user_authentication"><path d="M691.0174,598.024 C737.6314,609.273 813.5474,627.593 865.7584,640.192 " fill="none" id="edit_user-to-authentication" style="stroke:#181818;stroke-width:1.0;stroke-dasharray:7.0,7.0;"/><polygon fill="#181818" points="870.7354,641.393,862.925,635.3933,865.875,640.22,861.0482,643.17,870.7354,641.393" style="stroke:#181818;stroke-width:1.0;"/><text fill="#000000" font-family="sans-serif" font-size="13" lengthAdjust="spacing" textLength="61" x="755.9784" y="611.0669">«include»</text></g><!--MD5=[1626e7d5ae505c3a3a174b9be69e7f02]
link delete_user to authentication--><g id="link_delete_user_authentication"><path d="M714.6414,654 C752.8974,654 801.5634,654 842.2374,654 " fill="none" id="delete_user-to-authentication" style="stroke:#181818;stroke-width:1.0;stroke-dasharray:7.0,7.0;"/><polygon fill="#181818" points="847.6664,654,838.6664,650,842.6664,654,838.6664,658,847.6664,654" style="stroke:#181818;stroke-width:1.0;"/><text fill="#000000" font-family="sans-serif" font-size="13" lengthAdjust="spacing" textLength="61" x="755.9784" y="650.0669">«include»</text></g><!--MD5=[d8d9c932c8e02a411e0018c740a8258f]
link view_user to authentication--><g id="link_view_user_authentication"><path d="M692.2134,709.688 C738.9324,698.413 814.0274,680.292 865.7954,667.799 " fill="none" id="view_user-to-authentication" style="stroke:#181818;stroke-width:1.0;stroke-dasharray:7.0,7.0;"/><polygon fill="#181818" points="870.7304,666.608,861.0433,664.8303,865.8699,667.7806,862.9196,672.6072,870.7304,666.608" style="stroke:#181818;stroke-width:1.0;"/><text fill="#000000" font-family="sans-serif" font-size="13" lengthAdjust="spacing" textLength="61" x="755.9784" y="677.0669">«include»</text></g><!--MD5=[fdf804ab86b22dfccd75f7c3a7777ed4]
link create_article to authentication--><g id="link_create_article_authentication"><path d="M683.6284,841.444 C696.6944,835.661 711.6534,828.778 724.9784,822 C767.3824,800.431 780.8194,798.707 817.9784,769 C853.3114,740.753 887.3124,700.304 906.6284,675.67 " fill="none" id="create_article-to-authentication" style="stroke:#181818;stroke-width:1.0;stroke-dasharray:7.0,7.0;"/><polygon fill="#181818" points="909.8304,671.559,901.1438,676.2004,906.7576,675.5033,907.4547,681.117,909.8304,671.559" style="stroke:#181818;stroke-width:1.0;"/><text fill="#000000" font-family="sans-serif" font-size="13" lengthAdjust="spacing" textLength="61" x="755.9784" y="765.0669">«include»</text></g><!--MD5=[c3eae9d3b83aed610be0a41cad98e1de]
link edit_article to create_article--><g id="link_edit_article_create_article"><path d="M396.1894,581.976 C413.8184,587.036 433.2134,594.423 448.9784,605 C502.1424,640.667 511.9844,658.441 541.9784,715 C565.1184,758.633 539.7654,784.561 571.9784,822 C578.9084,830.054 588.1294,836.291 597.7414,841.089 " fill="none" id="edit_article-to-create_article" style="stroke:#181818;stroke-width:1.0;stroke-dasharray:7.0,7.0;"/><polygon fill="#181818" points="602.4824,843.331,596.0559,835.8678,597.9622,841.1938,592.6363,843.1001,602.4824,843.331" style="stroke:#181818;stroke-width:1.0;"/><text fill="#000000" font-family="sans-serif" font-size="13" lengthAdjust="spacing" textLength="61" x="479.9784" y="624.0669">«include»</text></g><!--MD5=[c5a6a9ca4cc50b99a2b677a68f3f4d5f]
link delete_article to create_article--><g id="link_delete_article_create_article"><path d="M403.0884,648.977 C419.3224,654.033 436.1144,661.624 448.9784,673 C472.2104,693.544 460.5964,711.023 478.9784,736 C512.3484,781.342 525.0344,790.926 571.9784,822 C582.2574,828.804 594.1214,834.865 605.3554,839.917 " fill="none" id="delete_article-to-create_article" style="stroke:#181818;stroke-width:1.0;stroke-dasharray:7.0,7.0;"/><polygon fill="#181818" points="610.1244,842.019,603.5035,834.7277,605.5495,840.0016,600.2756,842.0476,610.1244,842.019" style="stroke:#181818;stroke-width:1.0;"/><text fill="#000000" font-family="sans-serif" font-size="13" lengthAdjust="spacing" textLength="61" x="479.9784" y="732.0669">«include»</text></g><!--MD5=[bafe534f051ad949826fe40d819bfccd]
@startuml
left to right direction

:Reader: as reader
:Contributor: as contributor
:Admin: as admin

rectangle Nexo {
    
    (Authentication) as authentication
    (Registration) as registration
    
    (view contributor profile) as view_contributor_profile
    
    (view article) as view_article
    (create article) as create_article
    (edit article) as edit_article
    (delete article) as delete_article
    
    (create user) as create_user    
    (edit user) as edit_user
    (delete user) as delete_user
    (view user) as view_user
    
    (view all articles) as view_all_articles
    
    
    authentication ...> registration :<<include>>
    registration ...> authentication :<<extend>>
    
    reader - - view_contributor_profile
    
    
    reader - - view_all_articles
    
    reader - - - authentication    
    admin - - - authentication
    
    contributor - - - create_article
    contributor - - - view_article
    reader - - - view_article
    contributor - - - edit_article
    contributor - - - delete_article
    
    admin -|> contributor
    admin -|> reader
    
    admin - - - view_user
    admin - - - create_user
    admin - - - edit_user
    admin - - - delete_user
    
    (delete report) as delete_report
    (view all reports) as view_all_reports
    
    admin - - - delete_report 
    admin - - - view_all_reports
    
    view_all_reports ..> authentication :<<include>>
    delete_report ..> authentication :<<include>>
    
    create_user ..> authentication :<<include>>
    edit_user ..> authentication :<<include>>
    delete_user ..> authentication :<<include>>
    view_user ..> authentication :<<include>>
    
    create_article ..> authentication :<<include>>
    edit_article ..> create_article :<<include>>
    delete_article ..> create_article :<<include>>
    
    
}
@enduml

PlantUML version 1.2022.6beta5(Unknown compile time)
(GPL source distribution)
Java Runtime: Java(TM) SE Runtime Environment
JVM: Java HotSpot(TM) 64-Bit Server VM
Default Encoding: UTF-8
Language: en
Country: US
--></g></svg>