<?xml version="1.0" encoding="UTF-8" standalone="no"?><svg xmlns="http://www.w3.org/2000/svg" xmlns:xlink="http://www.w3.org/1999/xlink" contentStyleType="text/css" height="723px" preserveAspectRatio="none" style="width:1340px;height:723px;background:#FFFFFF;" version="1.1" viewBox="0 0 1340 723" width="1340px" zoomAndPan="magnify"><defs/><g><!--MD5=[11f5a59c7fe1ec63ab6229154f81e090]
cluster Nexo--><g id="cluster_Nexo"><rect height="367.9997" rx="2.5" ry="2.5" style="stroke:#181818;stroke-width:1.0;fill:none;" width="1101.004" x="233.2764" y="237"/><text fill="#000000" font-family="sans-serif" font-size="14" font-weight="bold" lengthAdjust="spacing" textLength="39" x="764.2784" y="251.9951">Nexo</text></g><g id="elem_authentication"><ellipse cx="920.0518" cy="419.0551" fill="#F1F1F1" rx="75.7754" ry="17.5551" style="stroke:#181818;stroke-width:0.5;"/><text fill="#000000" font-family="sans-serif" font-size="14" lengthAdjust="spacing" textLength="108" x="863.0518" y="422.8026">Authentication</text></g><g id="elem_registration"><ellipse cx="1249.8815" cy="420.1202" fill="#F1F1F1" rx="68.6011" ry="16.1202" style="stroke:#181818;stroke-width:0.5;"/><text fill="#000000" font-family="sans-serif" font-size="14" lengthAdjust="spacing" textLength="89" x="1202.3815" y="423.8678">Registration</text></g><g id="elem_view_contributor_profile"><ellipse cx="352.4372" cy="295.0322" fill="#F1F1F1" rx="103.1608" ry="23.0322" style="stroke:#181818;stroke-width:0.5;"/><text fill="#000000" font-family="sans-serif" font-size="14" lengthAdjust="spacing" textLength="171" x="266.9372" y="297.8788">view contributor profile</text></g><g id="elem_view_article"><ellipse cx="352.3894" cy="439.1226" fill="#F1F1F1" rx="66.113" ry="15.6226" style="stroke:#181818;stroke-width:0.5;"/><text fill="#000000" font-family="sans-serif" font-size="14" lengthAdjust="spacing" textLength="82" x="308.3894" y="442.8702">view article</text></g><g id="elem_create_article"><ellipse cx="649.8293" cy="486.2106" fill="#F1F1F1" rx="71.5529" ry="16.7106" style="stroke:#181818;stroke-width:0.5;"/><text fill="#000000" font-family="sans-serif" font-size="14" lengthAdjust="spacing" textLength="97" x="598.3293" y="489.9581">create article</text></g><g id="elem_edit_article"><ellipse cx="352.353" cy="504.9153" fill="#F1F1F1" rx="65.0766" ry="15.4153" style="stroke:#181818;stroke-width:0.5;"/><text fill="#000000" font-family="sans-serif" font-size="14" lengthAdjust="spacing" textLength="79" x="309.853" y="508.6629">edit article</text></g><g id="elem_delete_article"><ellipse cx="352.3293" cy="572.2106" fill="#F1F1F1" rx="71.5529" ry="16.7106" style="stroke:#181818;stroke-width:0.5;"/><text fill="#000000" font-family="sans-serif" font-size="14" lengthAdjust="spacing" textLength="97" x="300.8293" y="575.9581">delete article</text></g><g id="elem_create_user"><ellipse cx="649.5419" cy="553.0531" fill="#F1F1F1" rx="65.7655" ry="15.5531" style="stroke:#181818;stroke-width:0.5;"/><text fill="#000000" font-family="sans-serif" font-size="14" lengthAdjust="spacing" textLength="81" x="606.0419" y="556.8007">create user</text></g><g id="elem_edit_user"><ellipse cx="649.8563" cy="286.7511" fill="#F1F1F1" rx="57.0799" ry="14.7511" style="stroke:#181818;stroke-width:0.5;"/><text fill="#000000" font-family="sans-serif" font-size="14" lengthAdjust="spacing" textLength="63" x="615.3563" y="290.4987">edit user</text></g><g id="elem_delete_user"><ellipse cx="649.5419" cy="353.0531" fill="#F1F1F1" rx="65.7655" ry="15.5531" style="stroke:#181818;stroke-width:0.5;"/><text fill="#000000" font-family="sans-serif" font-size="14" lengthAdjust="spacing" textLength="81" x="606.0419" y="356.8007">delete user</text></g><g id="elem_view_user"><ellipse cx="649.5961" cy="418.7671" fill="#F1F1F1" rx="59.3197" ry="14.7671" style="stroke:#181818;stroke-width:0.5;"/><text fill="#000000" font-family="sans-serif" font-size="14" lengthAdjust="spacing" textLength="66" x="613.5961" y="422.5147">view user</text></g><g id="elem_view_all_articles"><ellipse cx="352.444" cy="371.1335" fill="#F1F1F1" rx="76.1676" ry="17.6335" style="stroke:#181818;stroke-width:0.5;"/><text fill="#000000" font-family="sans-serif" font-size="14" lengthAdjust="spacing" textLength="109" x="294.944" y="374.8811">view all articles</text></g><!--MD5=[e1c93bc9be729354515e9ba3224548de]
entity reader--><g id="elem_reader"><ellipse cx="81.7761" cy="331.5" fill="#F1F1F1" rx="8" ry="8" style="stroke:#181818;stroke-width:0.5;"/><path d="M81.7761,339.5 L81.7761,366.5 M68.7761,347.5 L94.7761,347.5 M81.7761,366.5 L68.7761,381.5 M81.7761,366.5 L94.7761,381.5 " fill="none" style="stroke:#181818;stroke-width:0.5;"/><text fill="#000000" font-family="sans-serif" font-size="14" lengthAdjust="spacing" textLength="51" x="56.2761" y="395.9951">Reader</text></g><!--MD5=[9a62c7632a3e12d2b4ef62c23371a6aa]
entity contributor--><g id="elem_contributor"><ellipse cx="81.7761" cy="615.4997" fill="#F1F1F1" rx="8" ry="8" style="stroke:#181818;stroke-width:0.5;"/><path d="M81.7761,623.4997 L81.7761,650.4997 M68.7761,631.4997 L94.7761,631.4997 M81.7761,650.4997 L68.7761,665.4997 M81.7761,650.4997 L94.7761,665.4997 " fill="none" style="stroke:#181818;stroke-width:0.5;"/><text fill="#000000" font-family="sans-serif" font-size="14" lengthAdjust="spacing" textLength="85" x="39.2761" y="679.9948">Contributor</text></g><!--MD5=[79a439086b036a57b90a01d7b2f8bbd1]
entity admin--><g id="elem_admin"><ellipse cx="81.7761" cy="154.5" fill="#F1F1F1" rx="8" ry="8" style="stroke:#181818;stroke-width:0.5;"/><path d="M81.7761,162.5 L81.7761,189.5 M68.7761,170.5 L94.7761,170.5 M81.7761,189.5 L68.7761,204.5 M81.7761,189.5 L94.7761,204.5 " fill="none" style="stroke:#181818;stroke-width:0.5;"/><text fill="#000000" font-family="sans-serif" font-size="14" lengthAdjust="spacing" textLength="46" x="58.7761" y="218.9951">Admin</text></g><!--MD5=[733214b4abb3e6b46ca096503df59544]
link authentication to registration--><g id="link_authentication_registration"><path d="M984.0934,428.507 C1007.0614,431.545 1033.2904,434.506 1057.2804,436 C1085.2204,437.74 1092.3304,437.733 1120.2804,436 C1142.0904,434.647 1165.8604,432.015 1186.9604,429.27 " fill="none" id="authentication-to-registration" style="stroke:#181818;stroke-width:1.0;stroke-dasharray:7.0,7.0;"/><polygon fill="#181818" points="1191.9904,428.608,1182.5428,425.8254,1187.0338,429.2651,1183.5941,433.756,1191.9904,428.608" style="stroke:#181818;stroke-width:1.0;"/><text fill="#000000" font-family="sans-serif" font-size="13" lengthAdjust="spacing" textLength="61" x="1058.2804" y="432.0669">«include»</text></g><!--MD5=[ad16fe5804610bda2f31cf431c4c29c6]
link registration to authentication--><g id="link_registration_authentication"><path d="M1182.4304,416.925 C1162.4504,416.133 1140.4804,415.393 1120.2804,415 C1080.9204,414.234 1037.2004,414.942 1000.7784,415.963 " fill="none" id="registration-to-authentication" style="stroke:#181818;stroke-width:1.0;stroke-dasharray:7.0,7.0;"/><polygon fill="#181818" points="995.4594,416.116,1004.5711,419.8547,1000.4573,415.9717,1004.3402,411.858,995.4594,416.116" style="stroke:#181818;stroke-width:1.0;"/><text fill="#000000" font-family="sans-serif" font-size="13" lengthAdjust="spacing" textLength="61" x="1058.2804" y="410.0669">«extend»</text></g><!--MD5=[6d2ba815bf33969db75b06c6654af276]
link reader to view_contributor_profile--><g id="link_reader_view_contributor_profile"><path d="M107.3805,351.97 C121.0714,347.141 138.4884,341.317 154.2764,337 C192.8984,326.437 236.3814,316.921 272.6504,309.629 " fill="none" id="reader-view_contributor_profile" style="stroke:#181818;stroke-width:1.0;"/></g><!--MD5=[68161b2a5b89f939a8a7c81ebe47c4fc]
link reader to view_all_articles--><g id="link_reader_view_all_articles"><path d="M107.5547,361.923 C145.7224,363.344 220.4184,366.126 277.1074,368.237 " fill="none" id="reader-view_all_articles" style="stroke:#181818;stroke-width:1.0;"/></g><!--MD5=[0d668084ebcc7b3a8df366d40d9195d9]
link reader to authentication--><g id="link_reader_authentication"><path d="M92.1538,399.386 C108.3729,456.354 147.6474,561.346 225.2764,605.9997 C416.5184,716.0051 513.4684,660.0999 721.2764,585.9997 C805.1434,556.094 877.7234,472.549 906.3054,436.227 " fill="none" id="reader-authentication" style="stroke:#181818;stroke-width:1.0;"/></g><!--MD5=[22733b7019a3047aa086b59d81280bdb]
link admin to authentication--><g id="link_admin_authentication"><path d="M87.617,145.814 C96.6268,93.512 121.2664,6 185.2764,6 C185.2764,6 185.2764,6 650.7764,6 C842.5594,6 904.3764,322.909 916.7604,401.517 " fill="none" id="admin-authentication" style="stroke:#181818;stroke-width:1.0;"/></g><!--MD5=[21b90ebb505956500097ed7f1e1c1e89]
link contributor to create_article--><g id="link_contributor_create_article"><path d="M124.5044,668.5139 C134.0364,673.0035 144.3024,677.1766 154.2764,679.9997 C181.2214,687.6268 189.9054,684.9186 217.2764,678.9997 C372.3994,645.4547 420.7524,639.478 548.2764,545 C562.2214,534.668 563.6834,529.396 578.2764,520 C589.5874,512.717 602.6934,505.982 614.5144,500.461 " fill="none" id="contributor-create_article" style="stroke:#181818;stroke-width:1.0;"/></g><!--MD5=[ba86ed00aeea6ef0112bdfeb08c067ab]
link contributor to view_article--><g id="link_contributor_view_article"><path d="M104.152,606.9875 C128.4174,567.337 171.6784,506.276 225.2764,472 C245.6604,458.964 271.0164,451.06 293.6274,446.276 " fill="none" id="contributor-view_article" style="stroke:#181818;stroke-width:1.0;"/></g><!--MD5=[ba2d0beaa4beb89bfc0d884fc761f49f]
link reader to view_article--><g id="link_reader_view_article"><path d="M107.3767,369.178 C135.6914,378.495 183.6494,393.984 225.2764,406 C251.9984,413.713 282.1294,421.633 306.2254,427.779 " fill="none" id="reader-view_article" style="stroke:#181818;stroke-width:1.0;"/></g><!--MD5=[3809082b311b9a05fd0f3988f5bcd06c]
link contributor to edit_article--><g id="link_contributor_edit_article"><path d="M124.5614,638.6686 C155.0304,631.7793 194.7744,617.6407 217.2764,588.9997 C231.4504,570.958 209.8884,555.018 225.2764,538 C241.2004,520.388 265.2584,511.672 288.0994,507.517 " fill="none" id="contributor-edit_article" style="stroke:#181818;stroke-width:1.0;"/></g><!--MD5=[1ff892a6b776a4137a213c290eb3ad59]
link contributor to delete_article--><g id="link_contributor_delete_article"><path d="M124.3764,663.7721 C151.3094,673.3209 186.8934,681.0059 217.2764,670.9997 C267.0024,654.6232 313.3984,611.9147 336.3154,588.2958 " fill="none" id="contributor-delete_article" style="stroke:#181818;stroke-width:1.0;"/></g><!--MD5=[d73d73a179aba733015d5f6fed3ae947]
link admin to contributor--><g id="link_admin_contributor"><path d="M61.3001,222.104 C47.8105,249.451 31.3742,287.653 24.2761,323.5 C6,415.798 35.5761,523.522 58.648,587.8948 " fill="none" id="admin-to-contributor" style="stroke:#181818;stroke-width:1.0;"/><polygon fill="none" points="65.2707,585.6208,65.6902,606.8063,52.1508,590.5064,65.2707,585.6208" style="stroke:#181818;stroke-width:1.0;"/></g><!--MD5=[109c7715445fc9e8d583890327c8d9ae]
link admin to reader--><g id="link_admin_reader"><path d="M81.7761,222 C81.7761,248.952 81.7761,275.905 81.7761,302.857 " fill="none" id="admin-to-reader" style="stroke:#181818;stroke-width:1.0;"/><polygon fill="none" points="88.7762,302.972,81.7761,322.972,74.7762,302.972,88.7762,302.972" style="stroke:#181818;stroke-width:1.0;"/></g><!--MD5=[501176bd9eeddaf4a3120b2162e427ab]
link admin to view_user--><g id="link_admin_view_user"><path d="M104.9403,183.495 C165.2264,183.061 335.6624,188.154 455.2764,254 C525.5244,292.67 513.4454,338.807 578.2764,386 C589.6394,394.271 603.4044,401.268 615.7454,406.662 " fill="none" id="admin-view_user" style="stroke:#181818;stroke-width:1.0;"/></g><!--MD5=[b1d175214e30e6e696cf3784ef3a81b0]
link admin to edit_user--><g id="link_admin_edit_user"><path d="M104.977,157.229 C117.8168,143.892 135.1884,129.123 154.2764,122 C318.3354,60.775 395.6084,36.23 548.2764,122 C607.0534,155.021 635.4874,237.906 644.9914,271.997 " fill="none" id="admin-edit_user" style="stroke:#181818;stroke-width:1.0;"/></g><!--MD5=[7f81e0e74d719ba1cbfa8ba56af983df]
link admin to delete_user--><g id="link_admin_delete_user"><path d="M104.8725,176.047 C177.7244,151.375 413.3584,84.102 548.2764,193 C593.4074,229.427 541.6954,274.993 578.2764,320 C585.7774,329.228 596.4514,336.012 607.2314,340.94 " fill="none" id="admin-delete_user" style="stroke:#181818;stroke-width:1.0;"/></g><!--MD5=[9f6f605c5ab7b438dee81e897bf26dd9]
link create_user to authentication--><g id="link_create_user_authentication"><path d="M686.6334,540.07 C720.2884,527.474 771.6854,507.046 814.2764,485 C841.2324,471.047 870.3404,452.447 891.0564,438.549 " fill="none" id="create_user-to-authentication" style="stroke:#181818;stroke-width:1.0;stroke-dasharray:7.0,7.0;"/><polygon fill="#181818" points="895.3464,435.658,885.6478,437.3721,891.2005,438.4529,890.1197,444.0055,895.3464,435.658" style="stroke:#181818;stroke-width:1.0;"/><text fill="#000000" font-family="sans-serif" font-size="13" lengthAdjust="spacing" textLength="61" x="752.2764" y="481.0669">«include»</text></g><!--MD5=[246bdb70b0b16707f1982fccb73ddcef]
link edit_user to authentication--><g id="link_edit_user_authentication"><path d="M685.0594,298.821 C718.6914,310.883 771.0724,330.922 814.2764,353 C841.3044,366.812 870.4064,385.426 891.1004,399.365 " fill="none" id="edit_user-to-authentication" style="stroke:#181818;stroke-width:1.0;stroke-dasharray:7.0,7.0;"/><polygon fill="#181818" points="895.3854,402.265,890.1739,393.908,891.2446,399.4626,885.69,400.5333,895.3854,402.265" style="stroke:#181818;stroke-width:1.0;"/><text fill="#000000" font-family="sans-serif" font-size="13" lengthAdjust="spacing" textLength="61" x="752.2764" y="320.0669">«include»</text></g><!--MD5=[1626e7d5ae505c3a3a174b9be69e7f02]
link delete_user to authentication--><g id="link_delete_user_authentication"><path d="M696.0194,364.121 C741.8234,375.38 812.7854,392.823 862.3764,405.013 " fill="none" id="delete_user-to-authentication" style="stroke:#181818;stroke-width:1.0;stroke-dasharray:7.0,7.0;"/><polygon fill="#181818" points="867.4074,406.25,859.6232,400.2162,862.5521,405.0558,857.7125,407.9847,867.4074,406.25" style="stroke:#181818;stroke-width:1.0;"/><text fill="#000000" font-family="sans-serif" font-size="13" lengthAdjust="spacing" textLength="61" x="752.2764" y="374.0669">«include»</text></g><!--MD5=[d8d9c932c8e02a411e0018c740a8258f]
link view_user to authentication--><g id="link_view_user_authentication"><path d="M709.3674,419 C747.3264,419 797.2664,419 838.9124,419 " fill="none" id="view_user-to-authentication" style="stroke:#181818;stroke-width:1.0;stroke-dasharray:7.0,7.0;"/><polygon fill="#181818" points="843.9484,419,834.9484,415,838.9484,419,834.9484,423,843.9484,419" style="stroke:#181818;stroke-width:1.0;"/><text fill="#000000" font-family="sans-serif" font-size="13" lengthAdjust="spacing" textLength="61" x="752.2764" y="415.0669">«include»</text></g><!--MD5=[fdf804ab86b22dfccd75f7c3a7777ed4]
link create_article to authentication--><g id="link_create_article_authentication"><path d="M699.0884,473.944 C745.2144,462.434 814.6914,445.097 863.2284,432.985 " fill="none" id="create_article-to-authentication" style="stroke:#181818;stroke-width:1.0;stroke-dasharray:7.0,7.0;"/><polygon fill="#181818" points="868.1534,431.757,858.4524,430.0566,863.3024,432.9683,860.3906,437.8182,868.1534,431.757" style="stroke:#181818;stroke-width:1.0;"/><text fill="#000000" font-family="sans-serif" font-size="13" lengthAdjust="spacing" textLength="61" x="752.2764" y="442.0669">«include»</text></g><!--MD5=[c3eae9d3b83aed610be0a41cad98e1de]
link edit_article to create_article--><g id="link_edit_article_create_article"><path d="M415.2224,501.017 C462.0174,498.008 526.3854,493.869 575.6984,490.698 " fill="none" id="edit_article-to-create_article" style="stroke:#181818;stroke-width:1.0;stroke-dasharray:7.0,7.0;"/><polygon fill="#181818" points="580.7244,490.375,571.4859,486.9618,575.7347,490.6964,572.0001,494.9453,580.7244,490.375" style="stroke:#181818;stroke-width:1.0;"/><text fill="#000000" font-family="sans-serif" font-size="13" lengthAdjust="spacing" textLength="61" x="486.2764" y="488.0669">«include»</text></g><!--MD5=[c5a6a9ca4cc50b99a2b677a68f3f4d5f]
link delete_article to create_article--><g id="link_delete_article_create_article"><path d="M402.8674,560.183 C442.4614,550.472 499.2334,535.927 548.2764,521 C567.3404,515.197 588.1804,508.071 605.9154,501.767 " fill="none" id="delete_article-to-create_article" style="stroke:#181818;stroke-width:1.0;stroke-dasharray:7.0,7.0;"/><polygon fill="#181818" points="610.8314,500.012,601.0106,499.269,606.1222,501.6922,603.699,506.8038,610.8314,500.012" style="stroke:#181818;stroke-width:1.0;"/><text fill="#000000" font-family="sans-serif" font-size="13" lengthAdjust="spacing" textLength="61" x="486.2764" y="517.0669">«include»</text></g><!--MD5=[7487eb1b435e1af8bfb98e4eaaf2d2a8]
@startuml
left to right direction

:Reader: as reader
:Contributor: as contributor
:Admin: as admin

rectangle Nexo {
    
    (Authentication) as authentication
    (Registration) as registration
    
    (view contributor profile) as view_contributor_profile
    
    (view article) as view_article
    (create article) as create_article
    (edit article) as edit_article
    (delete article) as delete_article
    
    (create user) as create_user    
    (edit user) as edit_user
    (delete user) as delete_user
    (view user) as view_user
    
    (view all articles) as view_all_articles
    
    
    authentication ...> registration :<<include>>
    registration ...> authentication :<<extend>>
    
    reader - - view_contributor_profile
    
    
    reader - - view_all_articles
    
    reader - - - authentication    
    admin - - - authentication
    
    contributor - - - create_article
    contributor - - - view_article
    reader - - - view_article
    contributor - - - edit_article
    contributor - - - delete_article
    
    admin -|> contributor
    admin -|> reader
    
    admin - - - view_user
    admin - - - edit_user
    admin - - - delete_user
    
    
    create_user ..> authentication :<<include>>
    edit_user ..> authentication :<<include>>
    delete_user ..> authentication :<<include>>
    view_user ..> authentication :<<include>>
    
    create_article ..> authentication :<<include>>
    edit_article ..> create_article :<<include>>
    delete_article ..> create_article :<<include>>
    
    
}
@enduml

PlantUML version 1.2022.6beta5(Unknown compile time)
(GPL source distribution)
Java Runtime: Java(TM) SE Runtime Environment
JVM: Java HotSpot(TM) 64-Bit Server VM
Default Encoding: UTF-8
Language: en
Country: US
--></g></svg>