<svg xmlns="http://www.w3.org/2000/svg" viewBox="0 0 311.48 70.69"><defs><style>.cls-1{fill:currentColor;}</style></defs><g id="Layer_2" data-name="Layer 2"><g id="Layer_1-2" data-name="Layer 1"><path class="cls-1" d="M37.44,3.48A30.52,30.52,0,0,0,14,13.62V5.17H0V69H14V27a21.25,21.25,0,0,1,7.8-7.47,20.35,20.35,0,0,1,10.27-2.93q15,0,15,16.51V69h14V30q0-12.48-6.17-19.5T37.44,3.48Z"/><path class="cls-1" d="M130.51,8.68q-6.88-5.19-16.77-5.2-14.43,0-23.66,9.62T81,37q0,15,10.14,24.31a36.19,36.19,0,0,0,25.09,9.36q14.69,0,23.53-6.24V52.62a39.45,39.45,0,0,1-20.54,5.72q-9.89,0-16.31-4.55a18.38,18.38,0,0,1-7.74-12.61H144V37.54Q144,18.31,130.51,8.68ZM95.28,30.52a16.23,16.23,0,0,1,5.53-10.85,17.71,17.71,0,0,1,12.28-4.36q7.8,0,12.22,4.68a16,16,0,0,1,4.55,10.53Z"/><polygon class="cls-1" points="217.57 0 194.46 23.11 171.35 0 159.12 12.23 182.23 35.34 159.12 58.45 171.35 70.68 194.46 47.58 217.57 70.68 229.8 58.45 206.7 35.34 229.8 12.23 217.57 0"/><path class="cls-1" d="M276.42.29a35.06,35.06,0,1,0,35.06,35.05A35.09,35.09,0,0,0,276.42.29Zm0,58.13a23.08,23.08,0,1,1,23.07-23.08A23.1,23.1,0,0,1,276.42,58.42Z"/></g></g></svg>